<?xml version="1.0" encoding="UTF-8" standalone="no"?>
<!DOCTYPE svg PUBLIC "-//W3C//DTD SVG 1.1//EN" "http://www.w3.org/Graphics/SVG/1.1/DTD/svg11.dtd">
<svg width="100%" height="100%" viewBox="0 0 2530 280" version="1.1" xmlns="http://www.w3.org/2000/svg" xmlns:xlink="http://www.w3.org/1999/xlink" xml:space="preserve" xmlns:serif="http://www.serif.com/" style="fill-rule:evenodd;clip-rule:evenodd;stroke-linejoin:round;stroke-miterlimit:1.41421;">
    <g transform="matrix(4.16667,0,0,4.16667,0,0)">
        <path d="M94.729,22.397L110.435,22.397L110.435,26.563L99.082,26.563L99.082,33.377L108.017,33.377L108.017,37.511L99.082,37.511L99.082,48.823L94.729,48.823L94.729,22.397Z" style="fill:rgb(35,31,32);fill-rule:nonzero;"/>
        <path d="M131.433,49.269C125.218,49.269 120.901,45.065 120.901,38.475L120.901,22.397L125.254,22.397L125.254,38.548C125.254,42.679 127.713,45.065 131.433,45.065C135.117,45.065 137.577,42.679 137.577,38.548L137.577,22.397L141.929,22.397L141.929,38.475C141.929,45.065 137.577,49.269 131.433,49.269Z" style="fill:rgb(35,31,32);fill-rule:nonzero;"/>
        <path d="M154.63,22.397L158.982,22.397L158.982,44.654L171.081,44.654L171.081,48.823L154.63,48.823L154.63,22.397Z" style="fill:rgb(35,31,32);fill-rule:nonzero;"/>
        <path d="M181.577,22.397L185.935,22.397L185.935,44.654L198.033,44.654L198.033,48.823L181.577,48.823L181.577,22.397Z" style="fill:rgb(35,31,32);fill-rule:nonzero;"/>
        <path d="M222.645,22.397L238.35,22.397L238.35,26.563L226.997,26.563L226.997,33.377L235.937,33.377L235.937,37.511L226.997,37.511L226.997,48.823L222.645,48.823L222.645,22.397Z" style="fill:rgb(35,31,32);fill-rule:nonzero;"/>
        <path d="M260.653,45.065C265.864,45.065 269.885,40.858 269.885,35.607C269.885,30.359 265.864,26.155 260.653,26.155C255.403,26.155 251.382,30.359 251.382,35.607C251.382,40.858 255.403,45.065 260.653,45.065ZM260.653,49.269C253.056,49.269 246.989,43.238 246.989,35.607C246.989,27.979 253.056,21.947 260.653,21.947C268.206,21.947 274.314,27.979 274.314,35.607C274.314,43.238 268.206,49.269 260.653,49.269Z" style="fill:rgb(35,31,32);fill-rule:nonzero;"/>
        <path d="M297.583,21.947C302.756,21.947 307.15,24.59 309.491,28.647L305.736,30.808C304.022,27.979 301.231,26.155 297.583,26.155C292.332,26.155 288.311,30.359 288.311,35.607C288.311,40.858 292.332,45.065 297.583,45.065C301.231,45.065 304.022,43.238 305.736,40.412L309.491,42.567C307.15,46.629 302.756,49.269 297.583,49.269C289.99,49.269 283.917,43.238 283.917,35.607C283.917,27.979 289.99,21.947 297.583,21.947Z" style="fill:rgb(35,31,32);fill-rule:nonzero;"/>
        <path d="M330.418,49.269C324.204,49.269 319.881,45.065 319.881,38.475L319.881,22.397L324.239,22.397L324.239,38.548C324.239,42.679 326.693,45.065 330.418,45.065C334.103,45.065 336.563,42.679 336.563,38.548L336.563,22.397L340.914,22.397L340.914,38.475C340.914,45.065 336.563,49.269 330.418,49.269Z" style="fill:rgb(35,31,32);fill-rule:nonzero;"/>
        <path d="M354.988,41.792C356.365,43.909 358.565,45.174 361.132,45.174C363.586,45.174 365.413,43.874 365.413,41.899C365.413,40.039 364.183,38.809 361.652,37.877L358.749,36.836C354.545,35.311 352.492,32.999 352.492,29.392C352.492,24.774 356.183,21.947 361.096,21.947C364.366,21.947 367.163,23.248 369.097,25.557L366.081,28.499C364.744,26.938 363.106,26.042 361.055,26.042C358.825,26.042 356.886,27.198 356.886,29.093C356.886,31.03 358.187,31.887 360.907,32.893L363.586,33.898C367.494,35.35 369.842,37.694 369.807,41.638C369.807,46.256 366.158,49.269 360.979,49.269C356.697,49.269 353.167,47.333 351.564,44.506L354.988,41.792Z" style="fill:rgb(35,31,32);fill-rule:nonzero;"/>
        <path d="M409.603,31.03C409.603,28.458 407.775,26.489 404.688,26.489L400.661,26.489L400.661,35.572L404.688,35.572C407.775,35.572 409.603,33.596 409.603,31.03ZM413.884,31.03C413.884,35.909 410.158,39.667 404.724,39.667L400.661,39.667L400.661,48.823L396.31,48.823L396.31,22.397L404.724,22.397C410.158,22.397 413.884,26.155 413.884,31.03Z" style="fill:rgb(35,31,32);fill-rule:nonzero;"/>
        <path d="M424.711,22.397L429.068,22.397L429.068,44.654L441.173,44.654L441.173,48.823L424.711,48.823L424.711,22.397Z" style="fill:rgb(35,31,32);fill-rule:nonzero;"/>
        <path d="M466.222,38.025L461.976,28.239L457.736,38.025L466.222,38.025ZM460.119,22.397L463.915,22.397L475.452,48.823L470.916,48.823L467.9,41.899L456.063,41.899L453.082,48.823L448.576,48.823L460.119,22.397Z" style="fill:rgb(35,31,32);fill-rule:nonzero;"/>
        <path d="M504.609,48.823L489.715,29.8L489.715,48.823L485.362,48.823L485.362,22.397L489.158,22.397L504.013,41.342L504.013,22.397L508.406,22.397L508.406,48.823L504.609,48.823Z" style="fill:rgb(35,31,32);fill-rule:nonzero;"/>
        <path d="M540.639,48.823L525.75,29.8L525.75,48.823L521.392,48.823L521.392,22.397L525.193,22.397L540.048,41.342L540.048,22.397L544.436,22.397L544.436,48.823L540.639,48.823Z" style="fill:rgb(35,31,32);fill-rule:nonzero;"/>
        <path d="M557.433,22.397L573.327,22.397L573.327,26.563L561.785,26.563L561.785,33.336L571.092,33.336L571.092,37.511L561.785,37.511L561.785,44.654L573.327,44.654L573.327,48.823L557.433,48.823L557.433,22.397Z" style="fill:rgb(35,31,32);fill-rule:nonzero;"/>
        <path d="M593.882,33.413C596.448,33.413 598.051,32.183 598.051,29.913C598.051,27.642 596.448,26.415 593.882,26.415L589.228,26.415L589.228,33.413L593.882,33.413ZM584.87,22.397L594.396,22.397C599.316,22.397 602.408,25.557 602.408,29.913C602.408,33.638 600.209,36.056 596.412,36.949L606.24,48.823L600.877,48.823L591.197,37.209L589.228,37.209L589.228,48.823L584.87,48.823L584.87,22.397Z" style="fill:rgb(35,31,32);fill-rule:nonzero;"/>
        <path d="M32.753,3.936L26.751,3.936C25.77,3.936 24.971,3.137 24.971,2.15C24.971,1.168 25.77,0.373 26.751,0.373L32.753,0.373C33.734,0.373 34.533,1.168 34.533,2.15C34.533,3.137 33.734,3.936 32.753,3.936Z" style="fill:rgb(35,31,32);fill-rule:nonzero;"/>
        <path d="M29.843,11.313C15.841,11.313 3.559,23.591 3.559,37.59C3.559,52.811 14.262,63.44 29.584,63.44C43.876,63.44 55.944,51.484 55.944,37.336C55.944,22.258 44.963,11.313 29.843,11.313ZM29.584,67C12.441,67 0,54.632 0,37.59C0,21.421 13.665,7.752 29.843,7.752C47.027,7.752 59.504,20.197 59.504,37.336C59.504,53.417 45.803,67 29.584,67Z" style="fill:rgb(35,31,32);fill-rule:nonzero;"/>
        <path d="M38.258,19.198C38.081,19.115 37.892,19.109 37.72,19.174C37.59,19.221 37.478,19.304 37.389,19.419L25.675,35.317C25.651,35.352 25.568,35.512 25.563,35.565L20.861,54.748C20.779,55.079 20.944,55.417 21.252,55.558C21.423,55.638 21.618,55.641 21.79,55.582C21.914,55.535 22.032,55.446 22.121,55.333L33.835,39.439C33.865,39.391 33.941,39.226 33.953,39.184L38.648,20.008C38.725,19.68 38.565,19.339 38.258,19.198Z" style="fill:rgb(35,31,32);fill-rule:nonzero;"/>
    </g>
</svg>
